<?xml version="1.0" encoding="UTF-8"?>
<svg id="Layer_2" data-name="Layer 2" xmlns="http://www.w3.org/2000/svg" viewBox="0 0 412.93 216">
  <defs>
    <style>
      .cls-1 {
        fill: #57cbf5;
      }

      .cls-2 {
        fill: #58cbf5;
      }

      .cls-3 {
        fill: #fdd230;
      }

      .cls-4 {
        fill: #19254d;
      }
    </style>
  </defs>
  <g id="Color_options" data-name="Color options">
    <g id="A._logo_stacked_midnight_sky" data-name="A. logo_stacked_midnight+sky">
      <rect class="cls-3" x="137.48" y="0" width="5.76" height="22.32" rx="2.82" ry="2.82"/>
      <rect class="cls-3" x="121.77" y="3.7" width="5.76" height="22.32" rx="2.82" ry="2.82" transform="translate(26 92.49) rotate(-45)"/>
      <rect class="cls-3" x="153.21" y="3.7" width="5.76" height="22.32" rx="2.82" ry="2.82" transform="translate(255.95 135.74) rotate(-135)"/>
      <path class="cls-4" d="M147.79,50.04h-14.85c-1.37,0-2.05.69-2.05,2.03v55.83c0,.66.19,1.15.53,1.52.36.37.87.54,1.52.54h14.85c.65,0,1.16-.17,1.52-.54.36-.37.53-.86.53-1.52v-55.83c0-1.35-.67-2.03-2.05-2.03Z"/>
      <path class="cls-4" d="M274.21,62.76c-1.98-4.05-4.77-7.18-8.41-9.4-3.62-2.22-7.83-3.33-12.68-3.33-2.6,0-5.47.55-8.53,1.66-3.09,1.13-5.78,2.6-8.12,4.41v-20c0-1.37-.65-2.05-1.98-2.05h-14.73c-.65,0-1.16.17-1.49.53-.36.36-.55.87-.55,1.52v71.83c0,.65.19,1.13.55,1.49.34.36.84.53,1.49.53h14.73c1.33,0,1.98-.67,1.98-2.02v-29.91c0-1.78.51-3.52,1.52-5.16.99-1.66,2.39-2.99,4.19-4.03,1.81-1.04,3.78-1.57,6-1.57,2,0,3.76.48,5.28,1.47,1.54.96,2.7,2.34,3.54,4.1.82,1.76,1.23,3.78,1.23,6.1v29c0,.65.17,1.13.53,1.49.36.36.87.53,1.52.53h14.85c.65,0,1.16-.17,1.52-.53.34-.36.53-.84.53-1.49v-31.14c0-5.3-.99-9.98-2.96-14.03Z"/>
      <path class="cls-4" d="M313.21,52.25h-8.22v-16.26c0-.59-.14-1.07-.46-1.42-.31-.34-.72-.51-1.23-.51-.24,0-.41.02-.55.05l-15.04,3c-1.21.24-1.81.98-1.81,2.27v12.87h-3.93c-1.35,0-2.05.68-2.05,2.03v13.68c0,.66.19,1.17.55,1.51.34.37.84.56,1.49.56h4.03v37.87c0,.66.19,1.15.53,1.51.36.37.87.54,1.52.54h14.85c.65,0,1.16-.17,1.52-.54.36-.37.53-.86.53-1.51v-37.87h8.27c.63,0,1.13-.2,1.49-.56.36-.34.53-.85.53-1.51v-13.68c0-1.34-.67-2.03-2.02-2.03Z"/>
      <path class="cls-1" d="M120.92,194.75c-4.71-2.77-8.38-6.49-11-11.17-2.62-4.68-3.93-9.79-3.93-15.32s1.25-10.7,3.76-15.4c2.51-4.7,6.02-8.44,10.54-11.22s9.66-4.18,15.42-4.18c6.28,0,11.7,1.31,16.25,3.93,4.55,2.62,8.02,6.25,10.42,10.88,2.4,4.63,3.59,9.92,3.59,15.88,0,1.65-.08,3.14-.24,4.47-.13,1.29-.84,1.94-2.14,1.94h-38.13c1.17,2.49,2.83,4.38,5,5.66s4.61,1.92,7.33,1.92c1.85,0,3.49-.24,4.93-.73,1.44-.48,2.89-1.2,4.35-2.13.42-.32.86-.49,1.31-.49.55,0,1.04.31,1.46.92l7.04,10.01c.29.42.44.84.44,1.26,0,.62-.28,1.13-.82,1.56-2.69,2.01-5.67,3.57-8.94,4.69-3.27,1.12-6.78,1.68-10.54,1.68-6.02,0-11.39-1.38-16.1-4.15ZM143.05,155.36c-1.88-1.21-4.11-1.82-6.7-1.82s-4.83.62-6.73,1.85c-1.89,1.23-3.34,3.06-4.35,5.49h22c-.94-2.46-2.35-4.3-4.23-5.51Z"/>
      <path class="cls-1" d="M177.92,196.57c-3.88-1.55-7.61-3.9-11.17-7.04-.52-.48-.78-.97-.78-1.46,0-.42.18-.89.53-1.41l7.14-9.13c.45-.58.94-.88,1.46-.88.45,0,.92.2,1.41.58,2.01,1.39,4.25,2.54,6.73,3.45,2.48.91,4.83,1.36,7.07,1.36,1.1,0,1.94-.14,2.53-.41.58-.27.87-.75.87-1.43,0-.71-.56-1.47-1.67-2.26-1.12-.79-3.34-1.77-6.68-2.94-4.89-1.72-8.92-4.02-12.09-6.92-3.17-2.9-4.76-6.92-4.76-12.07,0-3.27.82-6.32,2.45-9.13,1.63-2.82,4.12-5.09,7.46-6.82,3.33-1.73,7.43-2.6,12.29-2.6,3.3,0,6.7.66,10.2,1.99s6.6,3.34,9.32,6.02c.42.42.63.88.63,1.36,0,.52-.23,1.01-.68,1.46l-9.03,9.37c-.42.45-.87.68-1.36.68s-.99-.21-1.51-.63c-1.1-.87-2.39-1.6-3.86-2.19-1.47-.58-2.94-.87-4.4-.87-2.27,0-3.4.66-3.4,1.99,0,.48.28.95.83,1.38.55.44,1.45.91,2.7,1.41,1.25.5,3.04,1.14,5.37,1.92,5.31,1.75,9.37,4.05,12.17,6.9,2.8,2.85,4.2,6.75,4.2,11.7,0,3.24-.82,6.31-2.45,9.21s-4.04,5.24-7.21,7.04c-3.17,1.8-6.96,2.7-11.37,2.7-4.73,0-9.03-.78-12.92-2.33Z"/>
      <path class="cls-1" d="M235.84,198.37c-.35.36-.85.54-1.48.54h-14.63c-.64,0-1.13-.18-1.48-.54-.35-.36-.53-.86-.53-1.52v-55.27c0-1.34.67-2,2.01-2h14.63c1.34,0,2.01.67,2.01,2v55.27c0,.65-.18,1.16-.53,1.52Z"/>
      <path class="cls-1" d="M258.46,214.52c-4.6-.99-8.5-2.53-11.71-4.64-.65-.42-.97-.94-.97-1.55,0-.39.11-.8.34-1.21l5.88-11.07c.39-.74.91-1.12,1.55-1.12.36,0,.76.13,1.21.39,2.27,1.26,4.66,2.25,7.19,2.96,2.53.71,5.08,1.07,7.67,1.07,3.62,0,6.42-.87,8.72-2.01,3.48-1.74,4.55-6.62,3.28-7.41-1.06-.66-3.18,2.58-12.19,2.67-5.18.05-10-1.12-14.45-3.35-4.45-2.23-8-5.32-10.64-9.25-2.64-3.94-3.96-8.35-3.96-13.24,0-5.18,1.33-10.05,3.98-14.62,2.66-4.57,6.23-8.21,10.71-10.93,4.48-2.72,9.3-4.08,14.45-4.08,2.78,0,5.29.34,7.53,1.02,2.23.68,4.31,1.65,6.22,2.92l1.46-1.17c.26-.52.57-.89.95-1.12s.85-.34,1.43-.34h11.27c1.36,0,2.04.66,2.04,1.99v47.69c0,9.1-2.55,16.02-7.65,20.76-5.1,4.74-12.36,7.12-21.78,7.12-3.76,0-7.93-.49-12.53-1.48ZM276.99,174.72c1.77-1.07,3.15-2.45,4.15-4.13s1.51-3.43,1.51-5.24c0-2.07-.5-3.98-1.51-5.71-1-1.73-2.38-3.1-4.13-4.1-1.75-1-3.69-1.5-5.83-1.5s-4.16.5-5.97,1.5c-1.81,1.01-3.25,2.38-4.3,4.13-1.05,1.75-1.58,3.68-1.58,5.78,0,1.75.53,3.46,1.58,5.15,1.05,1.68,2.49,3.06,4.3,4.13s3.79,1.6,5.93,1.6,4.09-.53,5.85-1.6Z"/>
      <path class="cls-1" d="M353.41,140.79c3.63,2.22,6.43,5.35,8.4,9.4,1.97,4.05,2.96,8.73,2.96,14.04v31.13c0,1.36-.66,2.04-1.99,2.04h-14.86c-1.36,0-2.04-.68-2.04-2.04v-28.99c0-2.3-.41-4.33-1.24-6.1-.83-1.76-2.01-3.13-3.54-4.1-1.54-.97-3.31-1.46-5.32-1.46-2.2,0-4.19.52-5.97,1.55-1.78,1.04-3.17,2.38-4.18,4.03-1.01,1.65-1.51,3.37-1.51,5.15v29.92c0,.65-.18,1.15-.53,1.51-.36.36-.86.53-1.51.53h-14.86c-.65,0-1.15-.18-1.5-.53-.36-.36-.53-.86-.53-1.51v-54.93c0-1.33.68-1.99,2.04-1.99h11.32c1.07,0,1.86.49,2.38,1.46l2.58,4.22c2.3-1.97,5.06-3.58,8.28-4.81s6.21-1.85,8.96-1.85c4.82,0,9.05,1.11,12.67,3.33Z"/>
      <path class="cls-1" d="M378.98,196.75c-3.88-1.55-7.61-3.9-11.17-7.04-.52-.48-.78-.97-.78-1.46,0-.42.18-.89.53-1.41l7.14-9.13c.45-.58.94-.88,1.46-.88.45,0,.92.2,1.41.58,2.01,1.39,4.25,2.54,6.73,3.45,2.48.91,4.83,1.36,7.07,1.36,1.1,0,1.94-.14,2.53-.41.58-.27.87-.75.87-1.43,0-.71-.56-1.47-1.67-2.26-1.12-.79-3.34-1.77-6.68-2.94-4.89-1.72-8.92-4.02-12.09-6.92-3.17-2.9-4.76-6.92-4.76-12.07,0-3.27.82-6.32,2.45-9.13,1.64-2.82,4.12-5.09,7.46-6.82,3.33-1.73,7.43-2.6,12.29-2.6,3.3,0,6.7.66,10.2,1.99,3.5,1.33,6.6,3.34,9.33,6.02.42.42.63.88.63,1.36,0,.52-.23,1.01-.68,1.46l-9.03,9.37c-.42.45-.87.68-1.36.68s-.99-.21-1.51-.63c-1.1-.87-2.39-1.6-3.86-2.19-1.48-.58-2.94-.87-4.4-.87-2.27,0-3.4.66-3.4,1.99,0,.48.28.95.83,1.38.55.44,1.45.91,2.7,1.41,1.25.5,3.03,1.14,5.37,1.92,5.31,1.75,9.37,4.05,12.17,6.9,2.8,2.85,4.2,6.75,4.2,11.7,0,3.24-.82,6.31-2.45,9.21-1.63,2.9-4.04,5.24-7.21,7.04-3.17,1.8-6.96,2.7-11.36,2.7-4.73,0-9.03-.78-12.92-2.33Z"/>
      <path class="cls-4" d="M45.19,46.69c-4.47,0-8.72.93-12.58,2.6v-15.68c0-13-7.84-24.17-19.06-29.03C9.7,2.9,5.45,1.98.98,1.98c-.33,0-.65,0-.98.02v18.16c0,.48.39.89.87.88.14,0,.27,0,.41,0,6.75.14,12.27,5.92,12.27,12.67v44.62c0,17.48,8.71,31.64,31.63,31.64,17.48,0,31.64-14.16,31.64-31.64s-14.16-31.63-31.64-31.63ZM45.19,90.91c-6.94,0-12.58-5.64-12.58-12.58s5.64-12.58,12.58-12.58,12.58,5.64,12.58,12.58-5.64,12.58-12.58,12.58Z"/>
      <path class="cls-3" d="M149.73,36.12c0,5.17-4.19,9.37-9.37,9.37-5.17,0-9.37-4.19-9.37-9.37,0-5.17,4.19-9.37,9.37-9.37s9.37,4.19,9.37,9.37Z"/>
      <path class="cls-1" d="M81.99,138.49c-3.86-1.66-8.12-2.6-12.58-2.6-17.47,0-31.65,14.17-31.65,31.65s14.17,31.62,31.65,31.62,31.62-14.15,31.62-31.62l.03-57.07c-5.93,2.05-13.01,1.78-19.08,3.57v24.46ZM69.41,180.09c-6.94,0-12.58-5.64-12.58-12.56s5.64-12.58,12.58-12.58,12.58,5.64,12.58,12.58-5.66,12.56-12.58,12.56Z"/>
      <path class="cls-4" d="M126.92,57.62c-3.93-2.34-7.88-3.49-11.91-3.49-3.11,0-5.86.58-8.29,1.76-2.41,1.18-4.39,2.89-5.93,5.13l-2.92-4.46c-.53-.99-1.33-1.47-2.39-1.47h-11.47c-1.35,0-2.02.67-2.02,2v54.98l19.08-3.42v-22.95c.01-2.27.3-4.24.88-5.98.22-.6.46-1.18.72-1.74,1.08-2.07,2.46-3.64,4.17-4.68,1.69-1.04,3.47-1.57,5.35-1.57s3.98.6,6.12,1.81c.43.22.82.34,1.16.34.65,0,1.18-.36,1.57-1.11l6.6-12.39c.22-.36.34-.72.34-1.13,0-.58-.36-1.13-1.06-1.64Z"/>
      <path class="cls-4" d="M82,112.27c6.06-1.79,13.15-1.52,19.08-3.57v-.04l-19.08,3.42v.2Z"/>
      <path class="cls-2" d="M236.41,126.81c0,5.17-4.19,9.37-9.37,9.37-5.17,0-9.37-4.19-9.37-9.37,0-5.17,4.19-9.37,9.37-9.37s9.37,4.19,9.37,9.37Z"/>
      <path class="cls-4" d="M170.93,128.39c-4.6-.99-8.5-2.53-11.71-4.64-.65-.42-.97-.94-.97-1.55,0-.39.11-.8.34-1.21l5.88-11.07c.39-.74.91-1.12,1.55-1.12.36,0,.76.13,1.21.39,2.27,1.26,4.66,2.25,7.19,2.96,2.53.71,5.08,1.07,7.67,1.07,3.62,0,6.42-.87,8.72-2.01,3.48-1.74,4.55-6.62,3.28-7.41-1.06-.66-3.18,2.58-12.19,2.67-5.18.05-10-1.12-14.45-3.35-4.45-2.23-8-5.32-10.64-9.25-2.64-3.94-3.96-8.35-3.96-13.24,0-5.18,1.33-10.05,3.98-14.62,2.66-4.57,6.23-8.21,10.71-10.93,4.48-2.72,9.3-4.08,14.45-4.08,2.78,0,5.29.34,7.53,1.02,2.23.68,4.31,1.65,6.22,2.92l1.46-1.17c.26-.52.57-.89.95-1.12s.85-.34,1.43-.34h11.27c1.36,0,2.04.66,2.04,1.99v47.69c0,9.1-2.55,16.02-7.65,20.76-5.1,4.74-12.36,7.12-21.78,7.12-3.76,0-7.93-.49-12.53-1.48ZM189.46,88.59c1.77-1.07,3.15-2.45,4.15-4.13s1.51-3.43,1.51-5.24c0-2.07-.5-3.98-1.51-5.71s-2.38-3.1-4.13-4.1c-1.75-1-3.69-1.5-5.83-1.5s-4.16.5-5.97,1.5c-1.81,1.01-3.25,2.38-4.3,4.13-1.05,1.75-1.58,3.68-1.58,5.78,0,1.75.53,3.46,1.58,5.15s2.49,3.06,4.3,4.13,3.79,1.6,5.93,1.6,4.09-.53,5.85-1.6Z"/>
    </g>
  </g>
</svg>